# xmcd
#
# Track frame offsets:
#	150
#	12692
#	25119
#	37008
#	49584
#	61672
#	71550
#	82054
#	93036
#	103326
#	113763
#	125666
#	137833
#	149755
#	161019
#
# Disc length: 2307 seconds
#
# Revision: 1
# Processed by: cddbd v1.5.2PL0 Copyright (c) Steve Scherf et al.
# Submitted via: audiograbber 1.83.01
#
DISCID=d709010f
DTITLE=Hank Snow - Greatest Hits CD 01
DYEAR=1900
DGENRE=Country
TTITLE0=I'm Moving On
TTITLE1=The Golden Rocket
TTITLE2=Marriage Vow
TTITLE3=The Rhumba Boogie
TTITLE4=Bluebird Island
TTITLE5=Down The Trail Of Achin' Hearts
TTITLE6=Unwanted Sign Upon My Heart
TTITLE7=Music Makin' Mama From Memphis
TTITLE8=The Golden Rush Is Over
TTITLE9=Lady's Man
TTITLE10=Married By The Bible, Divorced By The Law
TTITLE11=I Went To Your Wedding
TTITLE12=The Gal Who Invented Kissin'
TTITLE13=(Now And Then) There's A Fool Such As I
TTITLE14=Honeymoon Of A Rocket Ship
EXTD=
EXTT0=
EXTT1=
EXTT2=
EXTT3=
EXTT4=
EXTT5=
EXTT6=
EXTT7=
EXTT8=
EXTT9=
EXTT10=
EXTT11=
EXTT12=
EXTT13=
EXTT14=
PLAYORDER=
